# Blender v2.92.0 OBJ File: 'steve.blend'
# www.blender.org
mtllib steve_000005.mtl
o Cube_Cube.001
v -0.800000 4.961559 0.800000
v -0.800000 6.561559 0.800000
v -0.800000 4.961559 -0.800000
v -0.800000 6.561559 -0.800000
v 0.800000 4.961559 0.800000
v 0.800000 6.561559 0.800000
v 0.800000 4.961559 -0.800000
v 0.800000 6.561559 -0.800000
vt 0.375447 0.875619
vt 0.250785 0.750851
vt 0.375447 0.750851
vt 0.249297 0.874865
vt 0.125026 0.750926
vt 0.249297 0.750926
vt 0.125398 0.876194
vt -0.001113 0.750306
vt 0.125398 0.750306
vt 0.499943 0.876023
vt 0.374703 0.749460
vt 0.499943 0.749460
vt 0.374420 0.874489
vt 0.250326 0.999887
vt 0.250326 0.874489
vt 0.250798 0.874975
vt 0.126541 1.001305
vt 0.126541 0.874975
vt 0.250785 0.875619
vt 0.125026 0.874865
vt -0.001113 0.876194
vt 0.374703 0.876023
vt 0.374420 0.999887
vt 0.250798 1.001305
vn -1.0000 0.0000 0.0000
vn 0.0000 0.0000 -1.0000
vn 1.0000 0.0000 0.0000
vn 0.0000 0.0000 1.0000
vn 0.0000 -1.0000 0.0000
vn 0.0000 1.0000 0.0000
usemtl Material.001
s off
f 2/1/1 3/2/1 1/3/1
f 4/4/2 7/5/2 3/6/2
f 8/7/3 5/8/3 7/9/3
f 6/10/4 1/11/4 5/12/4
f 7/13/5 1/14/5 3/15/5
f 4/16/6 6/17/6 8/18/6
f 2/1/1 4/19/1 3/2/1
f 4/4/2 8/20/2 7/5/2
f 8/7/3 6/21/3 5/8/3
f 6/10/4 2/22/4 1/11/4
f 7/13/5 5/23/5 1/14/5
f 4/16/6 2/24/6 6/17/6
o Cube.001_Cube.002
v -0.800000 2.561559 0.400000
v -0.800000 4.961559 0.400000
v -0.800000 2.561559 -0.400000
v -0.800000 4.961559 -0.400000
v 0.800000 2.561559 0.400000
v 0.800000 4.961559 0.400000
v 0.800000 2.561559 -0.400000
v 0.800000 4.961559 -0.400000
vt 0.499558 0.688477
vt 0.438244 0.500128
vt 0.499558 0.500127
vt 0.438201 0.687691
vt 0.311531 0.500516
vt 0.438201 0.500516
vt 0.312140 0.689076
vt 0.249557 0.500274
vt 0.312140 0.500274
vt 0.624821 0.687267
vt 0.500117 0.499566
vt 0.624821 0.499566
vt 0.562999 0.688364
vt 0.437806 0.749889
vt 0.437806 0.688364
vt 0.442014 0.388708
vt 0.321173 0.504360
vt 0.321173 0.388708
vt 0.438244 0.688477
vt 0.311531 0.687691
vt 0.249557 0.689076
vt 0.500117 0.687267
vt 0.562999 0.749889
vt 0.442014 0.504360
vn -1.0000 0.0000 0.0000
vn 0.0000 0.0000 -1.0000
vn 1.0000 0.0000 0.0000
vn 0.0000 0.0000 1.0000
vn 0.0000 -1.0000 0.0000
vn 0.0000 1.0000 0.0000
usemtl Material.001
s off
f 10/25/7 11/26/7 9/27/7
f 12/28/8 15/29/8 11/30/8
f 16/31/9 13/32/9 15/33/9
f 14/34/10 9/35/10 13/36/10
f 15/37/11 9/38/11 11/39/11
f 12/40/12 14/41/12 16/42/12
f 10/25/7 12/43/7 11/26/7
f 12/28/8 16/44/8 15/29/8
f 16/31/9 14/45/9 13/32/9
f 14/34/10 10/46/10 9/35/10
f 15/37/11 13/47/11 9/38/11
f 12/40/12 10/48/12 14/41/12
o Cube.002_Cube.003
v 0.000000 0.152488 -0.383851
v 0.000000 2.406983 0.439102
v 0.000000 0.426806 -1.135350
v 0.000000 2.681301 -0.312396
v 0.800000 0.152488 -0.383851
v 0.800000 2.406983 0.439102
v 0.800000 0.426806 -1.135350
v 0.800000 2.681301 -0.312396
vt 0.186179 0.687983
vt 0.126065 0.500261
vt 0.186179 0.500261
vt 0.123242 0.687670
vt 0.063915 0.500302
vt 0.123242 0.500302
vt 0.062782 0.687064
vt 0.001085 0.500332
vt 0.062782 0.500332
vt 0.186264 0.750237
vt 0.125722 0.689086
vt 0.186264 0.689086
vt 0.124230 0.749594
vt 0.063343 0.688920
vt 0.124230 0.688920
vt 0.250111 0.688987
vt 0.186754 0.499741
vt 0.250111 0.499741
vt 0.126065 0.687983
vt 0.063915 0.687670
vt 0.001085 0.687065
vt 0.125722 0.750237
vt 0.063343 0.749594
vt 0.186754 0.688987
vn -1.0000 -0.0000 -0.0000
vn 0.0000 0.3429 -0.9394
vn 1.0000 0.0000 0.0000
vn 0.0000 -0.9394 -0.3429
vn 0.0000 0.9394 0.3429
vn 0.0000 -0.3429 0.9394
usemtl Material.001
s off
f 18/49/13 19/50/13 17/51/13
f 20/52/14 23/53/14 19/54/14
f 24/55/15 21/56/15 23/57/15
f 23/58/16 17/59/16 19/60/16
f 20/61/17 22/62/17 24/63/17
f 22/64/18 17/65/18 21/66/18
f 18/49/13 20/67/13 19/50/13
f 20/52/14 24/68/14 23/53/14
f 24/55/15 22/69/15 21/56/15
f 23/58/16 21/70/16 17/59/16
f 20/61/17 18/71/17 22/62/17
f 22/64/18 18/72/18 17/65/18
o Cube.003_Cube.008
v -0.800000 0.407394 1.078586
v -0.800000 2.684050 0.319087
v -0.800000 0.154228 0.319701
v -0.800000 2.430884 -0.439798
v 0.000000 0.407394 1.078586
v -0.000000 2.684050 0.319087
v 0.000000 0.154228 0.319701
v 0.000000 2.430884 -0.439798
vt 0.186795 0.688598
vt 0.126680 0.500261
vt 0.186795 0.500261
vt 0.123242 0.688646
vt 0.063915 0.500663
vt 0.123242 0.500663
vt 0.061551 0.687680
vt 0.002316 0.500332
vt 0.061551 0.500332
vt 0.186264 0.750852
vt 0.125722 0.688471
vt 0.186264 0.688471
vt 0.124230 0.748978
vt 0.063343 0.688305
vt 0.124230 0.688305
vt 0.250111 0.689602
vt 0.186754 0.500356
vt 0.250111 0.500356
vt 0.126680 0.688598
vt 0.063915 0.688646
vt 0.002316 0.687680
vt 0.125722 0.750852
vt 0.063343 0.748978
vt 0.186754 0.689602
vn -1.0000 -0.0000 0.0000
vn 0.0000 -0.3165 -0.9486
vn 1.0000 0.0000 -0.0000
vn 0.0000 -0.9486 0.3165
vn 0.0000 0.9486 -0.3165
vn -0.0000 0.3165 0.9486
usemtl Material.001
s off
f 26/73/19 27/74/19 25/75/19
f 28/76/20 31/77/20 27/78/20
f 32/79/21 29/80/21 31/81/21
f 31/82/22 25/83/22 27/84/22
f 28/85/23 30/86/23 32/87/23
f 30/88/24 25/89/24 29/90/24
f 26/73/19 28/91/19 27/74/19
f 28/76/20 32/92/20 31/77/20
f 32/79/21 30/93/21 29/80/21
f 31/82/22 29/94/22 25/83/22
f 28/85/23 26/95/23 30/86/23
f 30/88/24 26/96/24 25/89/24
o Cube.004_Cube.005
v 0.800000 2.561883 0.366140
v 0.800000 4.791320 -0.522463
v 1.600000 2.561883 0.366139
v 1.600000 4.791320 -0.522463
v 0.800001 2.858084 1.109285
v 0.800000 5.087521 0.220683
v 1.600001 2.858084 1.109285
v 1.600000 5.087521 0.220682
vt 0.875502 0.687775
vt 0.811687 0.502193
vt 0.875502 0.502192
vt 0.750484 0.687390
vt 0.811508 0.501753
vt 0.750484 0.501753
vt 0.749635 0.501364
vt 0.688451 0.688638
vt 0.688451 0.501364
vt 0.750682 0.688500
vt 0.811132 0.751051
vt 0.750682 0.751051
vt 0.687525 0.750776
vt 0.749780 0.686554
vt 0.749780 0.750776
vt 0.687643 0.501218
vt 0.626360 0.687953
vt 0.626441 0.501218
vt 0.811687 0.687776
vt 0.811508 0.687390
vt 0.749635 0.688638
vt 0.811132 0.688500
vt 0.687525 0.686554
vt 0.687563 0.687953
vn -0.0000 -0.3703 -0.9289
vn 1.0000 -0.0000 -0.0000
vn 0.0000 0.3703 0.9289
vn 0.0000 -0.9289 0.3703
vn -0.0000 0.9289 -0.3703
vn -1.0000 0.0000 0.0000
usemtl Material.001
s off
f 34/97/25 35/98/25 33/99/25
f 36/100/26 39/101/26 35/102/26
f 39/103/27 38/104/27 37/105/27
f 39/106/28 33/107/28 35/108/28
f 40/109/29 34/110/29 38/111/29
f 37/112/30 34/113/30 33/114/30
f 34/97/25 36/115/25 35/98/25
f 36/100/26 40/116/26 39/101/26
f 39/103/27 40/117/27 38/104/27
f 39/106/28 37/118/28 33/107/28
f 40/109/29 36/119/29 34/110/29
f 37/112/30 38/120/30 34/113/30
o Cube.005_Cube.007
v -0.795891 2.559398 -0.424693
v -0.795891 4.763121 0.525889
v -1.595891 2.559398 -0.424693
v -1.595891 4.763121 0.525889
v -0.795892 2.876259 -1.159268
v -0.795892 5.079982 -0.208686
v -1.595892 2.876259 -1.159267
v -1.595892 5.079982 -0.208685
vt 0.872627 0.685933
vt 0.812315 0.500683
vt 0.872627 0.500682
vt 0.749033 0.687617
vt 0.809214 0.502518
vt 0.749033 0.502518
vt 0.749245 0.686653
vt 0.689050 0.500783
vt 0.749245 0.500783
vt 0.750730 0.689182
vt 0.811181 0.750063
vt 0.750730 0.750063
vt 0.688115 0.688519
vt 0.749780 0.750481
vt 0.688115 0.750481
vt 0.687674 0.687443
vt 0.627540 0.502103
vt 0.687753 0.502103
vt 0.812315 0.685934
vt 0.809214 0.687617
vt 0.689050 0.686653
vt 0.811180 0.689182
vt 0.749780 0.688519
vt 0.627461 0.687443
vn 0.0000 -0.3961 0.9182
vn -1.0000 -0.0000 0.0000
vn -0.0000 0.3961 -0.9182
vn -0.0000 -0.9182 -0.3961
vn 0.0000 0.9182 0.3961
vn 1.0000 0.0000 -0.0000
usemtl Material.001
s off
f 42/121/31 43/122/31 41/123/31
f 44/124/32 47/125/32 43/126/32
f 48/127/33 45/128/33 47/129/33
f 47/130/34 41/131/34 43/132/34
f 44/133/35 46/134/35 48/135/35
f 46/136/36 41/137/36 45/138/36
f 42/121/31 44/139/31 43/122/31
f 44/124/32 48/140/32 47/125/32
f 48/127/33 46/141/33 45/128/33
f 47/130/34 45/142/34 41/131/34
f 44/133/35 42/143/35 46/134/35
f 46/136/36 42/144/36 41/137/36
